<svg width="270" height="98" viewBox="0 0 270 98" fill="none" xmlns="http://www.w3.org/2000/svg">
<path d="M16.0136 56.0865H7.81939L6.38839 60.7644H0L9.09706 35.7237H14.7188L23.884 60.7644H17.4616L16.0136 56.0865ZM9.25038 51.4257H14.5826L11.908 42.7406L9.25038 51.4257Z" fill="#656980"/>
<path d="M45.4001 52.2856C45.3206 54.0284 44.855 55.5705 44.0032 56.912C43.1514 58.242 41.9532 59.2739 40.4087 60.0077C38.8755 60.7415 37.1208 61.1084 35.1446 61.1084C31.8851 61.1084 29.3184 60.0363 27.4445 57.8923C25.5706 55.7482 24.6336 52.7213 24.6336 48.8116V47.5733C24.6336 45.1197 25.0538 42.9756 25.8943 41.1412C26.746 39.2952 27.9669 37.8735 29.5569 36.876C31.1469 35.867 32.9868 35.3625 35.0765 35.3625C38.0861 35.3625 40.5052 36.1651 42.3337 37.7703C44.1622 39.364 45.2014 41.5654 45.4512 44.3744H39.4887C39.4433 42.8495 39.0629 41.7546 38.3474 41.0896C37.6319 40.4246 36.5416 40.0921 35.0765 40.0921C33.5887 40.0921 32.4984 40.6539 31.8056 41.7775C31.1129 42.9011 30.7494 44.6955 30.7154 47.1606V48.932C30.7154 51.6034 31.0447 53.5125 31.7034 54.659C32.3735 55.8056 33.5206 56.3788 35.1446 56.3788C36.5189 56.3788 37.5694 56.0521 38.2962 55.3985C39.0231 54.745 39.4092 53.7074 39.4547 52.2856H45.4001Z" fill="#656980"/>
<path d="M67.1888 40.3844H59.7442V60.7644H53.7647V40.3844H46.4563V35.7237H67.1888V40.3844Z" fill="#656980"/>
<path d="M76.0985 60.7644H70.136V35.7237H76.0985V60.7644Z" fill="#656980"/>
<path d="M89.8803 53.9539L94.8207 35.7237H101.499L93.1512 60.7644H86.6095L78.3301 35.7237H84.957L89.8803 53.9539Z" fill="#656980"/>
<path d="M118.705 50.1531H109.301V56.1209H120.408V60.7644H103.322V35.7237H120.442V40.3844H109.301V45.6643H118.705V50.1531Z" fill="#656980"/>
<path d="M123.454 60.7472V35.7065H129.978C132.647 35.7065 134.663 36.2569 136.026 37.3575C137.4 38.4468 138.087 40.0347 138.087 42.1215C138.087 43.6349 137.707 44.8904 136.946 45.8879C136.185 46.8854 135.112 47.5217 133.726 47.7969C135.294 48.0033 136.6 48.6912 137.644 49.8607C138.689 51.0187 139.212 52.3487 139.212 53.8507C139.212 55.9833 138.525 57.6687 137.15 58.907C135.788 60.1338 133.885 60.7472 131.443 60.7472H123.454ZM124.374 48.3816V59.8185H131.546C133.647 59.8185 135.294 59.2968 136.486 58.2534C137.69 57.1986 138.292 55.7425 138.292 53.8851C138.292 52.3028 137.713 51.0015 136.554 49.9811C135.396 48.9492 133.846 48.416 131.903 48.3816H124.374ZM124.374 47.4529H130.319C132.579 47.4529 134.283 47.0172 135.43 46.1459C136.577 45.263 137.15 43.8986 137.15 42.0527C137.15 38.4984 134.828 36.6925 130.183 36.6352H124.374V47.4529Z" fill="white"/>
<path d="M162.074 50.1015C162.074 52.2684 161.688 54.1889 160.915 55.8629C160.154 57.5254 159.064 58.8152 157.644 59.7325C156.225 60.6383 154.589 61.0912 152.738 61.0912C149.944 61.0912 147.684 60.0879 145.958 58.0815C144.232 56.075 143.368 53.3691 143.368 49.9639V46.3522C143.368 44.1967 143.749 42.282 144.51 40.608C145.282 38.9341 146.378 37.6442 147.798 36.7384C149.229 35.8212 150.864 35.3625 152.704 35.3625C154.555 35.3625 156.191 35.8212 157.61 36.7384C159.041 37.6442 160.143 38.9398 160.915 40.6252C161.688 42.2992 162.074 44.2082 162.074 46.3522V50.1015ZM161.154 46.3178C161.154 43.2909 160.393 40.866 158.871 39.043C157.349 37.2085 155.293 36.2913 152.704 36.2913C150.149 36.2913 148.11 37.2028 146.588 39.0258C145.066 40.8373 144.305 43.3081 144.305 46.4382V50.1015C144.305 52.0965 144.646 53.8621 145.328 55.3985C146.02 56.9234 147.003 58.0987 148.275 58.9242C149.547 59.7497 151.035 60.1624 152.738 60.1624C155.328 60.1624 157.377 59.2509 158.888 57.4279C160.398 55.6049 161.154 53.1169 161.154 49.9639V46.3178Z" fill="white"/>
<path d="M174.373 47.2465L182.38 35.7065H183.539L174.953 47.9689L183.862 60.7472H182.721L174.373 48.6912L165.992 60.7472H164.885L173.794 47.9689L165.208 35.7065H166.367L174.373 47.2465Z" fill="white"/>
</svg>
